<?xml version="1.0" encoding="UTF-8"?>
<svg width="700pt" height="700pt" version="1.1" viewBox="0 0 700 700" xmlns="http://www.w3.org/2000/svg">
 <path d="m500.29 84.617c5.1445-3.5508 8.0039-9.5742 7.5039-15.805-0.50391-6.2305-4.2891-11.719-9.9336-14.402-5.6484-2.6797-12.297-2.1445-17.441 1.4062l-275.95 190.39c-11.031 7.6094-17.625 20.148-17.645 33.551-0.023437 13.402 6.5352 25.957 17.543 33.602l275.29 191.23h0.003907c5.1367 3.5664 11.785 4.1211 17.441 1.457 5.6562-2.668 9.4609-8.1484 9.9805-14.379 0.51953-6.2344-2.3242-12.27-7.4609-15.832l-275.3-191.24c-1.5703-1.0898-2.5078-2.8828-2.5039-4.7969 0-1.9141 0.94141-3.707 2.5156-4.7969z"/>
</svg>
