<?xml version="1.0" encoding="UTF-8" standalone="no"?>
<svg
   width="184.75797pt"
   height="184.74706pt"
   version="1.1"
   viewBox="0 0 184.75797 184.74706"
   id="svg8"
   sodipodi:docname="noun-edit-5742858.svg"
   inkscape:version="1.2.2 (1:1.2.2+202212051550+b0a8486541)"
   xmlns:inkscape="http://www.inkscape.org/namespaces/inkscape"
   xmlns:sodipodi="http://sodipodi.sourceforge.net/DTD/sodipodi-0.dtd"
   xmlns="http://www.w3.org/2000/svg"
   xmlns:svg="http://www.w3.org/2000/svg">
  <defs
     id="defs12" />
  <sodipodi:namedview
     id="namedview10"
     pagecolor="#ffffff"
     bordercolor="#666666"
     borderopacity="1.0"
     inkscape:showpageshadow="2"
     inkscape:pageopacity="0.0"
     inkscape:pagecheckerboard="0"
     inkscape:deskcolor="#d1d1d1"
     inkscape:document-units="pt"
     showgrid="false"
     inkscape:zoom="0.25285714"
     inkscape:cx="-318.36158"
     inkscape:cy="209.60452"
     inkscape:window-width="1920"
     inkscape:window-height="1009"
     inkscape:window-x="0"
     inkscape:window-y="34"
     inkscape:window-maximized="1"
     inkscape:current-layer="svg8" />
  <g
     id="g6"
     transform="matrix(0.39278558,0,0,0.39278558,-42.960884,-19.744975)">
    <path
       d="M 157.5,520.62 H 490 c 12.758,-0.0117 24.992,-5.0859 34.016,-14.109 9.024,-9.0231 14.098,-21.258 14.109,-34.016 v -192.5 c 0,-7.25 -5.875,-13.125 -13.125,-13.125 -7.25,0 -13.125,5.875 -13.125,13.125 v 192.5 c -0.004,5.8008 -2.3125,11.359 -6.4141,15.461 -4.1016,4.1016 -9.6602,6.4102 -15.461,6.4141 h -332.5 c -5.8008,-0.004 -11.359,-2.3125 -15.461,-6.4141 -4.1016,-4.1016 -6.4102,-9.6602 -6.4141,-15.461 v -332.5 c 0.004,-5.8008 2.3125,-11.359 6.4141,-15.461 4.1016,-4.1016 9.6602,-6.4102 15.461,-6.4141 h 192.5 c 7.25,0 13.125,-5.875 13.125,-13.125 0,-7.25 -5.875,-13.125 -13.125,-13.125 h -192.5 c -12.758,0.01172 -24.992,5.0859 -34.016,14.109 -9.024,9.0231 -14.098,21.258 -14.109,34.016 v 332.5 c 0.0117,12.758 5.0859,24.992 14.109,34.016 9.0231,9.024 21.258,14.098 34.016,14.109 z"
       id="path2" />
    <path
       d="m 252.28,300.55 -2.0508,47.289 c -0.37891,8.3477 2.6797,16.488 8.457,22.527 5.7773,6.0391 13.773,9.4531 22.133,9.4453 0.44531,0 0.88672,-0.008 1.3164,-0.0273 l 47.305,-2.0586 c 7.6602,-0.32031 14.922,-3.5117 20.336,-8.9453 l 173.36,-173.37 45.082,-45.066 c 7.3867,-7.3828 11.535,-17.398 11.535,-27.844 0,-10.445 -4.1484,-20.461 -11.535,-27.844004 l -32.879,-32.891 c -7.3945,-7.3633 -17.406,-11.5 -27.84,-11.496 -10.438,0 -20.449,4.1367 -27.84,11.508 l -45.082,45.074004 -173.38,173.38 h -0.004 c -5.4102,5.418 -8.5938,12.668 -8.918,20.32 z M 498.22,80.35 h -0.004 c 5.125,-5.1211 13.43,-5.125 18.562,-0.0078 l 32.883,32.891 h -0.004 c 2.4609,2.457 3.8438,5.793 3.8438,9.2734 0,3.4805 -1.3828,6.8164 -3.8438,9.2773 l -35.805,35.793 -51.438,-51.441 z M 278.5,301.69 h -0.004 c 0.0547,-1.0938 0.51172,-2.1289 1.2812,-2.9062 l 164.08,-164.09 51.441,51.441 -164.1,164.1 c -0.76562,0.77344 -1.8008,1.2227 -2.8867,1.2656 l -47.305,2.0586 c -1.2383,0.11719 -2.457,-0.35547 -3.2969,-1.2734 -0.85938,-0.86719 -1.3203,-2.0586 -1.2656,-3.2812 z"
       id="path4" />
  </g>
</svg>
