<svg width="279" height="279" viewBox="0 0 279 279" fill="none" xmlns="http://www.w3.org/2000/svg">
<path d="M210.419 139.209C210.419 158.874 202.448 176.675 189.562 189.562C176.676 202.449 158.87 210.419 139.209 210.419C119.548 210.419 101.744 202.448 88.8566 189.562C75.9708 176.676 68 158.876 68 139.209C68 119.545 75.9708 101.744 88.8566 88.8566C101.725 75.9884 119.498 68.0219 139.169 68C140.379 68.0042 141.526 68.0354 142.691 68.0854C146.652 68.4438 146.387 74.0485 142.426 74.0485C141.351 74.0079 140.288 73.9767 139.209 73.9725C121.198 73.9725 104.882 81.2755 93.0808 93.082C81.2741 104.889 73.9713 121.197 73.9713 139.213C73.9713 157.224 81.2744 173.54 93.0808 185.341C104.888 197.148 121.196 204.451 139.209 204.451C157.222 204.451 173.536 197.148 185.34 185.341C197.147 173.534 204.449 157.226 204.449 139.213C204.445 138.146 204.422 137.089 204.373 136.023C204.042 132.398 209.956 131.502 210.337 135.719C210.386 136.889 210.417 138.044 210.422 139.214L210.419 139.209ZM139.21 83.9947C154.458 83.9947 168.262 90.1779 178.255 100.165C188.247 110.157 194.426 123.962 194.426 139.205C194.426 154.453 188.243 168.256 178.255 178.244C168.263 188.236 154.458 194.415 139.216 194.415C123.973 194.415 110.169 188.232 100.176 178.244C90.1885 168.252 84.0054 154.447 84.0054 139.205C84.0054 123.957 90.1885 110.153 100.176 100.165C110.168 90.1736 123.973 83.9947 139.216 83.9947H139.21ZM200.658 117.231C202.217 121.129 207.643 118.625 206.276 115.21C205.497 113.023 204.595 110.855 203.596 108.758C201.764 105.097 196.512 107.938 198.197 111.311C199.106 113.251 199.936 115.21 200.652 117.23L200.658 117.231ZM187.556 95.4009C190.052 98.2554 194.658 94.4508 191.974 91.3818C190.455 89.6524 188.722 87.9949 187.028 86.4353C183.99 83.7787 180.146 88.3532 183.035 90.8753C184.545 92.1921 186.235 93.8954 187.557 95.4009H187.556ZM167.124 80.2252C170.472 81.9015 173.348 76.6634 169.656 74.8131C167.518 73.814 165.413 72.94 163.195 72.1336C159.834 70.7896 157.267 76.1882 161.214 77.7654C163.257 78.5541 165.134 79.2938 167.124 80.2209L167.124 80.2252ZM136.225 110.303V139.208C136.225 140.369 136.888 141.377 137.856 141.87L149.219 148.367C150.648 149.182 152.471 148.69 153.291 147.26C154.107 145.831 153.614 144.008 152.185 143.188L142.202 137.48V110.306C142.202 108.657 140.867 107.317 139.214 107.317C137.564 107.317 136.225 108.653 136.225 110.306L136.225 110.303Z" fill="#6A009C"/>
<circle cx="139.5" cy="139.5" r="139.5" fill="#6A009C" fill-opacity="0.15"/>
</svg>
