<?xml version="1.0" encoding="UTF-8" standalone="no"?>
<svg
   width="279"
   height="279"
   viewBox="0 0 279 279"
   fill="none"
   version="1.1"
   id="svg37"
   sodipodi:docname="flights.svg"
   inkscape:version="1.2.2 (1:1.2.2+202212051550+b0a8486541)"
   xmlns:inkscape="http://www.inkscape.org/namespaces/inkscape"
   xmlns:sodipodi="http://sodipodi.sourceforge.net/DTD/sodipodi-0.dtd"
   xmlns="http://www.w3.org/2000/svg"
   xmlns:svg="http://www.w3.org/2000/svg">
  <sodipodi:namedview
     id="namedview39"
     pagecolor="#ffffff"
     bordercolor="#666666"
     borderopacity="1.0"
     inkscape:showpageshadow="2"
     inkscape:pageopacity="0.0"
     inkscape:pagecheckerboard="0"
     inkscape:deskcolor="#d1d1d1"
     showgrid="false"
     inkscape:zoom="0.84587814"
     inkscape:cx="130.04237"
     inkscape:cy="139.5"
     inkscape:window-width="1920"
     inkscape:window-height="1009"
     inkscape:window-x="0"
     inkscape:window-y="34"
     inkscape:window-maximized="1"
     inkscape:current-layer="svg37" />
  <circle
     cx="139.5"
     cy="139.5"
     r="139.5"
     fill="#009FC2"
     fill-opacity="0.3"
     id="circle2"
     style="fill:#009fc2;fill-opacity:0.15000001" />
  <g
     clip-path="url(#clip0_106_106)"
     id="g30">
    <path
       d="M184.937 140C201.024 136.208 213 122.439 213 106.034C213 86.7148 196.413 71 176.033 71C158.45 71 143.728 82.6979 139.998 98.3022C136.271 82.6961 121.547 71 103.967 71C83.5851 71 67 86.7148 67 106.034C67 122.439 78.9763 136.208 95.0628 140C78.9748 143.794 67 157.561 67 173.966C67 193.285 83.5851 209 103.967 209C121.547 209 136.271 197.304 139.998 181.696C143.728 197.304 158.45 209 176.033 209C196.413 209 213 193.285 213 173.966C213 157.561 201.024 143.794 184.937 140V140ZM103.968 200.758C88.3796 200.758 75.6976 188.738 75.6976 173.965C75.6976 159.192 88.3796 147.176 103.968 147.176C119.556 147.176 132.238 159.194 132.238 173.965C132.238 188.738 119.556 200.758 103.968 200.758ZM103.968 132.827C88.3796 132.827 75.6976 120.808 75.6976 106.034C75.6976 91.2607 88.3796 79.2419 103.968 79.2419C119.556 79.2419 132.238 91.2607 132.238 106.034C132.238 120.808 119.556 132.827 103.968 132.827ZM176.034 79.2456C191.623 79.2456 204.302 91.2643 204.302 106.037C204.302 120.812 191.621 132.83 176.034 132.83C160.446 132.83 147.763 120.809 147.763 106.034C147.763 91.2614 160.446 79.2456 176.034 79.2456V79.2456ZM176.034 200.758C160.446 200.758 147.763 188.738 147.763 173.965C147.763 159.192 160.446 147.176 176.034 147.176C191.623 147.176 204.302 159.194 204.302 173.965C204.302 188.738 191.622 200.758 176.034 200.758V200.758Z"
       fill="#009FC2"
       id="path4" />
    <path
       d="M109.581 106.802C109.581 109.693 107.108 112.036 104.057 112.036C101.008 112.036 98.5347 109.693 98.5347 106.802C98.5347 103.912 101.008 101.568 104.057 101.568C107.108 101.568 109.581 103.912 109.581 106.802Z"
       fill="#009FC2"
       id="path6" />
    <path
       d="M104.056 98.4228C104.801 98.4228 105.505 98.5359 106.189 98.6929C106.58 96.9022 106.815 94.6095 106.815 92.1084C106.815 86.3784 105.578 81.7318 104.056 81.7318C102.53 81.7318 101.293 86.3769 101.293 92.1084C101.293 94.6092 101.529 96.902 101.92 98.6929C102.605 98.5345 103.311 98.4228 104.056 98.4228H104.056Z"
       fill="#009FC2"
       id="path8" />
    <path
       d="M104.056 114.569C103.309 114.569 102.605 114.457 101.92 114.299C101.529 116.09 101.293 118.383 101.293 120.884C101.293 126.614 102.53 131.26 104.056 131.26C105.58 131.26 106.815 126.615 106.815 120.884C106.815 118.383 106.58 116.09 106.189 114.299C105.505 114.456 104.801 114.569 104.056 114.569H104.056Z"
       fill="#009FC2"
       id="path10" />
    <path
       d="M109.256 174.755C109.256 177.645 106.783 179.989 103.734 179.989C100.683 179.989 98.2114 177.645 98.2114 174.755C98.2114 171.864 100.683 169.522 103.734 169.522C106.783 169.522 109.256 171.864 109.256 174.755Z"
       fill="#009FC2"
       id="path12" />
    <path
       d="M112.29 172.735C112.454 173.38 112.572 174.049 112.572 174.759C112.572 175.46 112.454 176.129 112.29 176.779C114.18 177.152 116.602 177.373 119.238 177.373C125.284 177.373 130.184 176.2 130.184 174.759C130.184 173.309 125.284 172.14 119.238 172.14C116.599 172.14 114.18 172.361 112.29 172.734V172.735Z"
       fill="#009FC2"
       id="path14" />
    <path
       d="M88.8754 172.141C82.8307 172.141 77.9292 173.309 77.9292 174.759C77.9292 176.2 82.8307 177.373 88.8754 177.373C91.5142 177.373 93.9335 177.152 95.8249 176.779C95.6577 176.13 95.5398 175.461 95.5398 174.759C95.5398 174.049 95.6577 173.38 95.8249 172.735C93.9353 172.361 91.516 172.141 88.8754 172.141V172.141Z"
       fill="#009FC2"
       id="path16" />
    <path
       d="M181.338 106.711C181.338 109.601 178.866 111.944 175.817 111.944C172.769 111.944 170.298 109.601 170.298 106.711C170.298 103.822 172.77 101.479 175.817 101.479C178.866 101.479 181.338 103.822 181.338 106.711Z"
       fill="#009FC2"
       id="path18" />
    <path
       d="M183.378 102.41C184.992 101.404 186.872 99.9413 188.737 98.1733C193.011 94.122 195.602 90.0088 194.524 88.9848C193.445 87.965 189.109 90.4205 184.829 94.4715C182.965 96.2396 181.418 98.0204 180.362 99.5468C180.963 99.8933 181.545 100.287 182.071 100.786C182.598 101.287 183.013 101.84 183.378 102.41L183.378 102.41Z"
       fill="#009FC2"
       id="path20" />
    <path
       d="M167.269 118.52C169.133 116.752 170.68 114.971 171.736 113.442C171.135 113.095 170.553 112.702 170.027 112.203C169.5 111.704 169.089 111.152 168.72 110.583C167.106 111.588 165.226 113.052 163.362 114.82C159.087 118.871 156.496 122.985 157.574 124.008C158.653 125.026 162.99 122.569 167.269 118.52L167.269 118.52Z"
       fill="#009FC2"
       id="path22" />
    <path
       d="M181.372 173.832C181.372 176.723 178.899 179.065 175.85 179.065C172.799 179.065 170.328 176.723 170.328 173.832C170.328 170.942 172.799 168.598 175.85 168.598C178.899 168.598 181.372 170.942 181.372 173.832Z"
       fill="#009FC2"
       id="path24" />
    <path
       d="M182.79 178.988C182.351 179.507 181.871 180.011 181.281 180.442C180.697 180.878 180.066 181.199 179.426 181.472C180.274 183.113 181.578 185.061 183.196 187.032C186.915 191.551 190.904 194.499 192.106 193.611C193.309 192.723 191.269 188.339 187.556 183.817C185.938 181.842 184.262 180.172 182.79 178.988L182.79 178.988Z"
       fill="#009FC2"
       id="path26" />
    <path
       d="M172.676 166.673C171.82 165.032 170.519 163.084 168.897 161.113C165.182 156.594 161.194 153.646 159.99 154.534C158.79 155.422 160.828 159.81 164.536 164.328C166.163 166.301 167.833 167.971 169.302 169.16C169.746 168.636 170.226 168.137 170.816 167.702C171.402 167.27 172.032 166.95 172.675 166.673L172.676 166.673Z"
       fill="#009FC2"
       id="path28" />
  </g>
  <defs
     id="defs35">
    <clipPath
       id="clip0_106_106">
      <rect
         width="146"
         height="138"
         fill="white"
         transform="translate(67 71)"
         id="rect32" />
    </clipPath>
  </defs>
</svg>
