<svg width="279" height="279" viewBox="0 0 279 279" fill="none" xmlns="http://www.w3.org/2000/svg">
<circle cx="139.5" cy="139.5" r="139.5" fill="#9C4200" fill-opacity="0.15"/>
<path fill-rule="evenodd" clip-rule="evenodd" d="M93.5342 123.541H104.529V185.081H93.5342V123.541Z" fill="#9C4200"/>
<path fill-rule="evenodd" clip-rule="evenodd" d="M120.587 123.541H131.581V185.081H120.587V123.541Z" fill="#9C4200"/>
<path fill-rule="evenodd" clip-rule="evenodd" d="M147.451 123.541H158.443V185.081H147.451V123.541Z" fill="#9C4200"/>
<path fill-rule="evenodd" clip-rule="evenodd" d="M174.413 123.541H185.405V185.081H174.413V123.541Z" fill="#9C4200"/>
<path fill-rule="evenodd" clip-rule="evenodd" d="M88.7153 113.357H190.082V120.938H88.7153V113.357Z" fill="#9C4200"/>
<path fill-rule="evenodd" clip-rule="evenodd" d="M82.7739 187.728H196.534V194.758H82.7739V187.728Z" fill="#9C4200"/>
<path fill-rule="evenodd" clip-rule="evenodd" d="M69 205.196H209.911V212.227H69V205.196Z" fill="#9C4200"/>
<path fill-rule="evenodd" clip-rule="evenodd" d="M75.835 196.568H203.212V203.599H75.835V196.568Z" fill="#9C4200"/>
<path fill-rule="evenodd" clip-rule="evenodd" d="M202.038 106.347H202.057L139.384 67L76.8429 106.347H76.885C76.2483 106.828 75.833 107.583 75.833 108.443C75.833 109.898 77.0126 110.379 78.4691 110.379H200.454C201.909 110.379 203.09 109.898 203.09 108.443C203.091 107.584 202.673 106.828 202.038 106.347Z" fill="#9C4200"/>
</svg>
