<?xml version="1.0" encoding="UTF-8" standalone="no"?>
<svg
   width="279"
   height="279"
   viewBox="0 0 279 279"
   fill="none"
   version="1.1"
   id="svg28"
   sodipodi:docname="series.svg"
   inkscape:version="1.2.2 (1:1.2.2+202212051550+b0a8486541)"
   xmlns:inkscape="http://www.inkscape.org/namespaces/inkscape"
   xmlns:sodipodi="http://sodipodi.sourceforge.net/DTD/sodipodi-0.dtd"
   xmlns="http://www.w3.org/2000/svg"
   xmlns:svg="http://www.w3.org/2000/svg">
  <defs
     id="defs32" />
  <sodipodi:namedview
     id="namedview30"
     pagecolor="#ffffff"
     bordercolor="#666666"
     borderopacity="1.0"
     inkscape:showpageshadow="2"
     inkscape:pageopacity="0.0"
     inkscape:pagecheckerboard="0"
     inkscape:deskcolor="#d1d1d1"
     showgrid="false"
     inkscape:zoom="0.84587814"
     inkscape:cx="130.04237"
     inkscape:cy="139.5"
     inkscape:window-width="1920"
     inkscape:window-height="1009"
     inkscape:window-x="0"
     inkscape:window-y="34"
     inkscape:window-maximized="1"
     inkscape:current-layer="svg28" />
  <circle
     cx="139.5"
     cy="139.5"
     r="139.5"
     fill="#DBB42F"
     fill-opacity="0.3"
     id="circle2"
     style="fill:#dbb42f;fill-opacity:0.15000001" />
  <path
     d="M142.134 178.999L175.233 164.816V110.136L142.134 124.319V178.999ZM165.001 120.542C165.652 119.896 166.583 119.616 167.483 119.797C167.667 119.823 167.844 119.879 168.009 119.962C168.179 120.018 168.338 120.101 168.478 120.211C168.636 120.306 168.784 120.417 168.92 120.542C169.423 121.071 169.707 121.77 169.717 122.5C169.723 123.234 169.435 123.94 168.917 124.458C168.648 124.702 168.34 124.898 168.007 125.038C166.981 125.478 165.79 125.249 165.001 124.458C164.49 123.933 164.203 123.232 164.2 122.5C164.209 121.77 164.495 121.069 165.001 120.542ZM165.001 131.575C165.652 130.929 166.583 130.649 167.483 130.83C167.667 130.856 167.844 130.912 168.009 130.995C168.179 131.051 168.338 131.134 168.478 131.244C168.636 131.339 168.784 131.45 168.92 131.575C169.423 132.104 169.707 132.803 169.717 133.533C169.723 134.267 169.435 134.973 168.917 135.491C168.648 135.735 168.34 135.931 168.007 136.071C166.981 136.511 165.79 136.282 165.001 135.491C164.49 134.966 164.203 134.265 164.2 133.533C164.209 132.803 164.495 132.102 165.001 131.575Z"
     fill="#DBB42F"
     id="path4" />
  <path
     d="M170.448 106.183L158.29 101.839C158.022 102.295 157.63 102.663 157.158 102.902L140.609 111.177C140.571 111.196 140.524 111.177 140.482 111.204C139.787 111.551 138.97 111.551 138.275 111.204C138.233 111.188 138.187 111.204 138.149 111.177L121.599 102.902C121.129 102.663 120.736 102.295 120.469 101.839L108.31 106.183L139.376 119.498L170.448 106.183Z"
     fill="#DBB42F"
     id="path6" />
  <path
     d="M136.618 83.1146L125.584 79.4377V98.7295L136.618 104.246V83.1146Z"
     fill="#DBB42F"
     id="path8" />
  <path
     d="M147.206 75.6093L139.376 73L131.545 75.6093L139.376 78.2185L147.206 75.6093Z"
     fill="#DBB42F"
     id="path10" />
  <path
     d="M142.134 104.245L153.167 98.7283V79.4365L142.134 83.1133V104.245Z"
     fill="#DBB42F"
     id="path12" />
  <path
     d="M136.618 124.319L103.519 110.136V164.816L136.618 178.999V124.319ZM114.331 134.582C114.08 135.276 113.535 135.821 112.841 136.072C112.174 136.367 111.413 136.367 110.746 136.072C110.411 135.932 110.103 135.736 109.836 135.492C109.592 135.224 109.396 134.916 109.256 134.582C109.102 134.255 109.025 133.896 109.035 133.534C109.039 132.803 109.325 132.101 109.836 131.577C110.624 130.78 111.817 130.541 112.851 130.971C113.886 131.401 114.558 132.414 114.552 133.534C114.547 133.895 114.473 134.251 114.331 134.582ZM114.331 123.549C114.08 124.242 113.535 124.788 112.841 125.039C112.174 125.334 111.413 125.334 110.746 125.039C110.411 124.899 110.103 124.703 109.836 124.459C109.592 124.191 109.396 123.883 109.256 123.549C109.102 123.222 109.025 122.863 109.035 122.501C109.04 122.141 109.114 121.785 109.256 121.453C109.389 121.116 109.586 120.807 109.836 120.544C110.941 119.523 112.646 119.523 113.751 120.544C113.995 120.811 114.191 121.119 114.331 121.453C114.626 122.121 114.626 122.882 114.331 123.549Z"
     fill="#DBB42F"
     id="path14" />
  <path
     d="M98.0018 161.116H92.0052L81.6924 194.215H196.402L186.946 161.116H180.751V166.632C180.751 167.735 180.094 168.733 179.08 169.168L140.464 185.717C140.426 185.733 140.384 185.717 140.349 185.742H140.347C139.73 186.002 139.035 186.002 138.417 185.742C138.381 185.726 138.339 185.742 138.301 185.717L99.6851 169.168C98.6667 168.735 98.0055 167.738 98.0031 166.632L98.0018 161.116Z"
     fill="#DBB42F"
     id="path16" />
  <path
     d="M200.71 150.083H180.751V155.599H189.026C190.259 155.599 191.342 156.417 191.68 157.601L202.713 196.217C202.949 197.049 202.783 197.945 202.261 198.635C201.74 199.326 200.925 199.731 200.059 199.731H77.945C77.0658 199.733 76.2383 199.315 75.7175 198.607C75.1954 197.899 75.0439 196.984 75.3074 196.146L87.3442 157.53H87.3454C87.7062 156.38 88.7738 155.598 89.9793 155.599H98.0029V150.083H78.0438L63 205.248H215.754L200.71 150.083Z"
     fill="#DBB42F"
     id="path18" />
  <path
     d="M81.4521 105.95C81.4521 107.473 82.6872 108.708 84.2104 108.708C85.7336 108.708 86.9687 107.473 86.9687 105.95C86.9687 105.399 87.1559 92.1589 103.518 92.1589C105.041 92.1589 106.277 90.9238 106.277 89.4006C106.277 87.8774 105.041 86.6423 103.518 86.6423C81.7059 86.6423 81.4521 105.757 81.4521 105.95Z"
     fill="#DBB42F"
     id="path20" />
  <path
     d="M73.1772 97.6754C73.9086 97.6754 74.6105 97.3848 75.1277 96.8676C75.6449 96.3504 75.9355 95.6486 75.9355 94.9171C75.9355 94.3655 76.1227 81.1258 92.4851 81.1258C94.0083 81.1258 95.2434 79.8907 95.2434 78.3675C95.2434 76.8443 94.0083 75.6093 92.4851 75.6093C70.6727 75.6093 70.4189 94.7239 70.4189 94.9171C70.4189 95.6486 70.7096 96.3505 71.2267 96.8676C71.7439 97.3848 72.4458 97.6754 73.1772 97.6754Z"
     fill="#DBB42F"
     id="path22" />
  <path
     d="M175.233 92.1589C191.167 92.1589 191.767 104.529 191.783 105.95C191.783 107.473 193.018 108.708 194.541 108.708C196.064 108.708 197.3 107.473 197.3 105.95C197.3 105.757 197.046 86.6423 175.233 86.6423C173.71 86.6423 172.475 87.8774 172.475 89.4006C172.475 90.9238 173.71 92.1589 175.233 92.1589Z"
     fill="#DBB42F"
     id="path24" />
  <path
     d="M186.267 81.1258C202.201 81.1258 202.8 93.4961 202.816 94.9171C202.816 96.4403 204.051 97.6754 205.574 97.6754C207.098 97.6754 208.333 96.4403 208.333 94.9171C208.333 94.7238 208.079 75.6093 186.267 75.6093C184.743 75.6093 183.508 76.8443 183.508 78.3675C183.508 79.8907 184.743 81.1258 186.267 81.1258Z"
     fill="#DBB42F"
     id="path26" />
</svg>
