<svg width="279" height="279" viewBox="0 0 279 279" fill="none" xmlns="http://www.w3.org/2000/svg">
<circle cx="139.5" cy="139.5" r="139.5" fill="#009C51" fill-opacity="0.15"/>
<path d="M141.012 72C106.226 72 77.449 98.5632 74.1286 132.559H64.6409C61.0045 132.559 58 135.564 58 139.2C58 142.836 61.0045 145.841 64.6409 145.841H115.871C118.401 145.841 120.615 144.418 121.721 142.205L127.256 131.453L144.174 164.183C145.281 166.397 147.495 167.82 150.024 167.82C152.554 167.82 154.768 166.397 155.874 164.183L165.362 145.684H174.849C178.486 145.684 181.49 142.679 181.49 139.043C181.49 135.406 178.486 132.402 174.849 132.402H161.409C158.879 132.402 156.665 133.825 155.559 136.038L150.024 146.79L133.106 114.217C130.892 109.79 123.618 109.79 121.405 114.217L111.917 132.717H87.4099C90.7309 105.995 113.499 85.2819 141.012 85.2819C170.738 85.2819 195.088 109.474 195.088 139.358C195.088 169.242 170.738 193.276 141.012 193.276C118.559 193.276 99.1106 179.362 91.0466 159.755H76.9741C85.6709 186.793 111.128 206.4 141.012 206.4C178.011 206.4 208.212 176.2 208.212 139.2C208.212 102.2 178.011 72 141.012 72H141.012Z" fill="#009C51"/>
</svg>
